<?xml version="1.0" standalone="no"?>
<!DOCTYPE svg PUBLIC "-//W3C//DTD SVG 20010904//EN"
 "http://www.w3.org/TR/2001/REC-SVG-20010904/DTD/svg10.dtd">
<svg version="1.0" xmlns="http://www.w3.org/2000/svg"
 width="400.000000pt" height="271.000000pt" viewBox="0 0 400.000000 271.000000"
 preserveAspectRatio="xMidYMid meet">
<metadata>
Created by potrace 1.15, written by Peter Selinger 2001-2017
</metadata>
<g transform="translate(0.000000,271.000000) scale(0.100000,-0.100000)"
fill="#000000" stroke="none">
<path d="M0 1780 l1 -930 22 0 c16 0 18 -3 8 -9 -7 -5 -9 -10 -3 -12 5 -2 12
-15 16 -29 l7 -25 -17 22 c-9 13 -20 23 -25 23 -5 0 -9 -181 -9 -410 l0 -410
174 0 174 0 -11 43 c-6 23 -13 44 -17 47 -9 7 -25 80 -22 103 1 10 -2 15 -8
12 -5 -3 -12 7 -16 22 -3 15 -8 35 -12 43 -8 19 -9 29 -11 59 -1 23 -2 24 -14
6 -13 -17 -14 -17 -20 4 -3 11 -1 21 4 21 5 0 9 5 9 10 0 6 -6 10 -13 10 -8 0
-14 7 -14 15 0 9 6 14 14 11 10 -4 12 1 9 19 -6 33 -14 45 -31 45 -7 0 -15 7
-19 15 -3 8 -1 15 5 15 7 0 8 12 4 30 -4 16 -3 35 1 42 8 13 8 48 -2 111 -4
21 -2 37 2 35 14 -4 54 25 54 39 0 21 17 14 23 -9 6 -20 -2 -32 -26 -40 -4 -2
-10 -15 -12 -31 -4 -22 -2 -27 15 -27 13 0 20 7 20 20 0 14 14 26 46 41 l45
22 15 -22 c8 -11 21 -21 28 -21 8 0 19 -7 26 -15 7 -8 23 -15 36 -15 27 0 31
-15 10 -36 -10 -10 -12 -22 -6 -42 7 -27 6 -29 -24 -30 -28 -1 -32 2 -31 25 0
14 -6 28 -13 31 -9 3 -11 -3 -6 -22 5 -20 2 -26 -9 -26 -23 0 -26 -10 -17 -60
12 -62 1 -149 -22 -172 -10 -10 -13 -18 -7 -18 5 0 7 -5 4 -10 -4 -6 -11 -8
-16 -5 -5 4 -9 -1 -9 -9 0 -9 7 -16 15 -16 18 0 20 -26 2 -33 -9 -3 -9 -9 0
-26 7 -11 13 -29 13 -40 0 -11 6 -21 12 -24 9 -2 13 -26 12 -75 l-1 -72 963 0
962 0 6 63 c6 55 3 87 -19 185 -3 12 -10 22 -15 22 -5 0 -7 -6 -4 -14 3 -8 1
-17 -5 -21 -6 -3 -11 1 -11 9 0 9 -6 17 -12 18 -7 0 -17 2 -23 3 -5 2 -18 3
-27 4 -11 1 -18 9 -18 21 0 11 -6 20 -14 20 -8 0 -18 14 -21 32 -10 47 -34 90
-46 83 -5 -4 -30 5 -55 19 -26 14 -52 26 -58 26 -12 0 -33 22 -52 56 -6 10
-21 20 -33 22 -11 2 -21 8 -21 13 0 5 -8 9 -18 9 -10 0 -23 5 -29 11 -6 6 -22
16 -35 23 -12 6 -31 27 -40 46 -10 19 -20 34 -23 33 -5 -2 -21 6 -83 43 -19
11 -44 39 -57 64 -19 38 -31 48 -74 64 -50 18 -84 48 -96 87 -5 15 -12 18 -27
13 -16 -5 -32 7 -75 52 -30 33 -61 69 -70 82 -8 12 -21 22 -28 22 -20 0 -74
48 -90 81 -8 15 -29 36 -45 46 -17 10 -40 38 -52 62 -12 25 -29 53 -37 63 -53
62 -100 326 -80 451 10 57 42 151 61 171 14 16 9 51 -9 66 -10 9 -39 32 -65
51 l-47 36 37 11 c55 17 168 48 242 67 36 9 133 50 215 91 321 157 613 220
1030 218 230 0 321 -9 520 -49 272 -55 552 -172 712 -300 46 -36 87 -65 91
-65 5 0 14 11 20 24 10 23 61 46 103 46 26 0 29 -24 8 -56 -10 -16 -19 -36
-19 -44 0 -13 62 -49 86 -50 5 -1 27 -9 49 -20 66 -32 65 -33 65 99 l0 119
-67 -23 c-37 -13 -69 -22 -71 -20 -2 2 7 19 21 37 13 18 28 43 32 56 8 27 40
46 66 39 18 -5 19 3 19 194 l0 199 -2000 0 -2000 0 0 -930z m839 -177 c16 4
27 -3 43 -26 12 -18 15 -27 7 -20 -14 12 -82 13 -93 2 -5 -4 -13 -38 -15 -61
-1 -5 -6 -8 -12 -8 -6 0 -8 7 -5 16 5 14 4 15 -9 4 -8 -7 -15 -16 -15 -20 0
-8 39 -23 53 -21 5 1 6 -11 2 -27 -4 -20 -1 -33 9 -41 17 -14 11 -41 -10 -41
-8 0 -11 -6 -8 -15 5 -12 9 -11 23 7 10 12 23 18 29 14 19 -12 14 -26 -12 -36
-22 -8 -24 -12 -16 -41 5 -17 7 -29 3 -25 -3 3 -12 1 -20 -6 -7 -6 -17 -7 -21
-3 -4 4 -1 10 6 12 6 3 12 13 12 24 0 27 -46 26 -55 -1 -9 -28 -25 -25 -25 5
0 14 -4 26 -10 26 -48 5 -55 3 -52 -19 2 -12 -1 -22 -6 -22 -12 0 -22 49 -12
55 5 3 5 17 1 33 -5 18 -15 28 -32 30 -13 2 -29 8 -35 13 -14 12 -41 -18 -46
-50 -1 -14 -8 -26 -15 -28 -9 -3 -10 4 -4 25 5 16 9 52 10 80 2 73 3 82 12 82
4 0 9 10 11 23 2 17 10 23 33 24 17 1 25 0 19 -3 -6 -2 -9 -15 -7 -28 4 -20 8
-22 28 -13 19 10 20 13 9 25 -8 7 -12 18 -9 23 10 15 25 10 26 -8 0 -11 3 -13
6 -5 7 18 36 14 56 -8 9 -11 24 -20 32 -20 21 0 19 30 -2 31 -13 0 -11 3 7 10
24 10 24 11 6 25 -11 7 -18 15 -15 16 39 24 45 25 71 5 16 -12 35 -17 47 -14z
m-115 -776 c8 -30 6 -46 -3 -24 -6 17 -8 17 -29 -2 -13 -11 -24 -23 -24 -28
-1 -14 -35 -53 -42 -46 -3 3 -19 -9 -34 -27 -39 -44 -56 -33 -47 29 8 55 15
68 26 50 12 -20 40 20 34 48 -6 24 13 31 77 25 27 -3 38 -9 42 -25z"/>
<path d="M1420 2271 c0 -5 -14 -13 -32 -16 -34 -8 -93 -38 -119 -61 -8 -8 -19
-14 -23 -14 -10 0 -120 -90 -125 -102 -2 -6 -11 -18 -20 -28 -29 -30 -51 -60
-45 -60 3 0 -3 -12 -13 -27 -32 -47 -48 -123 -48 -223 0 -90 2 -99 38 -172 41
-81 153 -209 195 -222 12 -4 22 -11 22 -16 0 -5 12 -15 28 -23 15 -7 53 -30
85 -51 31 -20 57 -34 57 -31 0 3 10 0 23 -7 12 -7 24 -13 27 -13 3 -1 18 -5
33 -10 66 -18 106 50 45 77 -24 11 -25 13 -10 25 16 11 16 12 0 13 -21 0 -24
20 -6 38 9 9 9 12 0 12 -7 0 -12 -4 -12 -10 0 -13 -28 -1 -56 25 -22 21 -23
23 -6 38 14 13 20 13 35 2 12 -8 14 -15 7 -20 -5 -3 -8 -11 -5 -16 4 -5 15 -3
27 6 17 11 25 12 36 2 12 -9 16 -9 19 1 8 21 33 13 34 -10 1 -13 1 -26 0 -30
-1 -11 37 -10 41 1 2 4 13 12 26 15 18 6 22 4 22 -13 0 -14 11 -25 36 -36 44
-18 62 -10 38 16 -14 16 -8 26 11 17 10 -6 32 37 27 52 -5 13 -3 13 11 2 14
-12 16 -11 12 7 -2 14 1 18 11 14 8 -3 14 -9 14 -15 0 -5 9 -6 20 -3 14 5 20
2 20 -10 0 -8 7 -18 16 -22 13 -5 13 -8 2 -15 -10 -8 -9 -9 4 -5 18 6 68 -13
68 -26 0 -5 4 -5 10 -2 6 4 7 -1 3 -10 -3 -10 0 -21 7 -25 11 -7 11 -11 0 -25
-10 -12 -10 -19 -1 -28 9 -9 14 -9 21 3 7 11 10 8 15 -13 4 -15 11 -27 15 -27
15 0 50 52 50 74 0 17 2 18 10 6 7 -11 12 -12 21 -3 9 9 18 9 40 -3 20 -10 29
-11 29 -3 0 9 4 9 14 0 22 -18 55 -24 136 -25 41 -1 80 -4 85 -7 13 -9 66 -3
74 8 6 9 25 12 113 16 31 1 53 -2 55 -9 5 -14 53 -5 53 10 1 14 21 -21 24 -40
3 -16 20 -19 22 -4 1 6 3 13 4 18 1 4 2 10 1 15 -1 4 10 13 24 19 14 6 25 15
25 20 0 4 7 8 16 8 8 0 12 5 9 10 -6 10 15 14 50 10 21 -3 45 -3 105 2 33 3
35 5 33 38 -2 51 -14 94 -28 105 -10 9 -10 14 1 30 12 17 18 18 44 8 33 -12
49 -1 31 21 -16 19 -71 28 -87 16 -8 -8 -14 -8 -19 0 -3 5 -4 10 0 10 3 0 1 9
-5 20 -6 11 -18 20 -26 20 -9 0 -12 -5 -8 -12 4 -6 3 -8 -3 -5 -6 4 -8 19 -5
33 4 21 2 25 -9 19 -12 -7 -12 -6 -1 7 10 13 7 19 -22 42 -19 14 -44 26 -56
26 -12 0 -18 5 -15 10 3 6 -5 14 -19 19 -14 6 -26 19 -28 33 -2 13 -10 23 -18
23 -8 0 -21 8 -28 18 -7 9 -26 17 -43 17 -16 0 -32 6 -35 14 -3 8 -28 20 -55
27 -27 7 -49 16 -49 20 0 9 -38 21 -80 25 -19 2 -64 9 -99 16 -55 12 -61 15
-47 27 9 7 13 17 10 22 -3 5 2 9 12 9 13 0 14 3 5 14 -12 14 -97 15 -151 2
-83 -20 -217 -29 -225 -15 -3 4 -16 3 -30 -3 -18 -8 -35 -7 -74 8 -28 10 -51
21 -51 24 0 4 -18 12 -40 19 -22 6 -40 16 -40 21 0 6 -18 10 -40 10 -29 0 -40
4 -40 15 0 18 -70 20 -135 5 -31 -7 -43 -6 -56 6 -15 13 -18 13 -33 -2 -9 -9
-20 -13 -24 -9 -4 3 1 11 11 16 20 12 23 49 3 49 -8 0 -22 3 -32 7 -12 4 -15
3 -10 -5 5 -8 -1 -12 -17 -12 -14 0 -28 7 -31 16 -4 12 -1 14 14 9 15 -5 18
-3 14 9 -3 9 -1 16 5 16 6 0 11 7 11 16 0 9 6 22 14 28 18 14 31 56 17 56 -6
0 -11 -4 -11 -9z m657 -333 c7 -5 14 -5 18 2 3 5 13 10 22 10 14 0 14 -2 -1
-19 -10 -10 -13 -21 -8 -22 5 -2 13 -14 16 -26 6 -17 3 -23 -9 -23 -8 0 -18 7
-22 16 -5 13 -19 15 -86 10 -44 -3 -82 -7 -84 -10 -3 -2 -18 0 -34 6 -24 8
-37 6 -80 -17 -28 -14 -53 -24 -56 -21 -11 11 7 36 25 36 11 0 31 9 45 20 19
15 31 18 48 11 13 -4 31 -5 39 0 8 4 22 10 30 14 8 3 26 12 39 20 25 14 75 10
98 -7z"/>
<path d="M3855 1855 c23 -67 27 -99 22 -180 -3 -51 -13 -110 -23 -135 -41
-104 -127 -208 -249 -300 -38 -30 -72 -56 -75 -60 -3 -3 -30 -21 -60 -40 -66
-42 -80 -54 -80 -73 0 -8 -7 -28 -15 -43 -8 -16 -15 -41 -15 -56 0 -15 -5 -30
-11 -33 -6 -4 -8 -13 -5 -20 4 -11 -13 -25 -30 -25 -9 0 -3 111 8 135 9 19 9
28 0 37 -9 9 -12 8 -12 -6 0 -13 -5 -16 -20 -11 -11 4 -20 2 -20 -4 0 -6 -6
-11 -12 -11 -15 0 -58 -43 -58 -58 0 -6 -5 -12 -11 -14 -8 -3 -9 -17 -2 -49 9
-42 8 -47 -16 -71 -14 -15 -39 -30 -54 -34 -21 -5 -25 -9 -15 -15 8 -5 2 -8
-18 -6 -20 1 -30 6 -27 15 3 6 0 12 -6 12 -6 0 -11 -3 -11 -8 0 -7 -14 -16
-76 -45 l-31 -15 -6 -166 c-3 -91 -4 -173 0 -182 9 -24 27 27 42 116 12 77 48
199 68 235 7 12 23 20 45 20 l33 1 -1 -85 c-1 -47 -8 -115 -17 -151 -13 -57
-22 -157 -18 -200 1 -12 4 -11 12 3 6 10 9 27 6 38 -4 14 0 19 14 19 10 0 19
-6 20 -12 2 -26 41 159 44 210 2 30 6 56 9 59 3 4 6 14 6 24 0 10 9 33 20 51
11 18 20 41 20 51 0 22 17 22 29 -1 11 -21 8 -78 -9 -170 -8 -44 -8 -85 0
-144 5 -45 10 -88 10 -95 0 -29 18 -10 25 25 34 187 89 409 107 427 19 20 19
19 14 -75 -3 -52 -10 -111 -16 -130 -5 -19 -9 -74 -9 -122 2 -86 2 -88 21 -72
10 10 18 25 17 33 -1 9 3 29 9 44 7 16 12 36 12 45 0 9 9 42 20 72 l19 55 -2
-67 c-1 -36 -5 -61 -9 -55 -5 8 -8 7 -8 -3 0 -8 4 -21 9 -29 7 -11 11 -9 20 8
7 11 9 21 6 21 -4 0 1 7 9 16 9 8 16 25 16 37 0 29 22 87 33 87 5 0 7 -14 5
-32 -5 -28 -4 -29 9 -13 7 11 13 29 13 40 0 25 40 141 59 170 11 18 12 18 7 2
-3 -10 -15 -62 -26 -115 -11 -53 -24 -98 -29 -101 -5 -4 -13 -24 -17 -46 -4
-24 -18 -50 -36 -67 -15 -14 -31 -40 -34 -57 -7 -33 -36 -56 -60 -47 -9 3 -14
-1 -14 -14 0 -34 -23 -70 -47 -76 -14 -4 -35 -24 -49 -46 -28 -43 -40 -50
-106 -57 -4 -1 -10 -10 -13 -22 -8 -24 -61 -59 -90 -59 -11 0 -40 -14 -64 -30
-30 -21 -56 -30 -83 -30 -22 0 -59 -11 -88 -26 -34 -18 -65 -26 -98 -26 -27 1
-71 -5 -98 -13 l-49 -13 112 -1 c91 -1 120 3 158 19 26 11 53 20 62 20 8 0 53
18 99 40 47 22 88 40 93 40 5 0 11 4 13 9 2 5 30 26 63 45 64 38 107 73 183
146 26 25 56 52 67 60 12 8 29 33 39 55 22 48 46 76 57 69 5 -3 6 2 3 10 -3 9
-11 13 -17 9 -6 -3 -7 -1 -3 5 4 6 13 9 20 6 8 -3 17 -1 21 5 3 6 -1 11 -10
11 -9 0 -13 5 -10 10 4 6 13 9 20 8 8 -2 20 6 28 17 14 18 30 22 95 24 15 1
22 7 22 20 0 13 10 20 31 25 27 5 31 10 27 31 -5 25 16 37 24 14 2 -6 15 0 28
14 14 13 34 27 45 31 11 3 35 20 53 36 l32 31 0 310 c0 252 -2 309 -13 309 -8
0 -22 18 -32 40 -10 22 -22 40 -27 40 -4 0 -8 6 -8 14 0 8 -6 16 -12 18 -9 3
-15 44 -18 139 -5 103 -10 141 -24 164 -9 17 -14 21 -11 10z"/>
<path d="M3565 120 c-3 -11 -15 -20 -26 -20 -20 0 -26 -15 -9 -25 8 -5 7 -11
-1 -21 -8 -10 -15 -12 -23 -4 -5 5 -25 10 -44 10 -29 0 -34 -3 -29 -20 3 -11
1 -20 -4 -20 -5 0 -9 -4 -9 -10 0 -6 73 -10 199 -10 221 0 228 2 160 60 -40
34 -55 37 -62 11 -4 -16 -10 -19 -33 -12 -16 4 -34 18 -41 32 -24 47 -67 64
-78 29z"/>
</g>
</svg>
